<svg width="48" height="48" viewBox="0 0 48 48" xmlns="http://www.w3.org/2000/svg">
  <path fill="#7856FF" d="M39 0H9C4 0 0 4 0 9v30c0 5 4 9 9 9h30c5 0 9-4 9-9V9c0-5-4-9-9-9Z"/>
  <path fill="#fff" d="M35.5 17h-7.2v3.5h7.2V17Z"/>
  <path fill="#fff" d="M28.2 25.5v-3.4h3.4c1 0 1.7-.4 2.4-1 .6-.7 1-1.5 1-2.5s-.4-1.7-1-2.4c-.7-.7-1.5-1-2.4-1h-3.4v-3.4h3.4c1 0 1.8.1 2.6.5a7 7 0 0 1 3.6 9 6.9 6.9 0 0 1-6.2 4.2h-3.4ZM28 29a6.7 6.7 0 0 1 7 0 7.2 7.2 0 0 1 3.5 6c0 1.2-.3 2.3-1 3.4a7.2 7.2 0 0 1-6 3.5c-1.2 0-2.4-.3-3.5-1a7.2 7.2 0 0 1-3.5-6 7.2 7.2 0 0 1 3.5-6Zm6 3.5c-.7-.7-1.5-1-2.5-1s-1.8.3-2.5 1c-.6.7-1 1.5-1 2.4 0 1 .3 1.8 1 2.5s1.6 1 2.5 1c1 0 1.8-.3 2.5-1 .6-.7 1-1.5 1-2.5s-.4-1.7-1-2.4Z"/>
  <path fill="#fff" fill-rule="evenodd" d="M12.6 31.5v6.9H16c1 0 1.7-.4 2.4-1 .7-.7 1-1.5 1-2.4 0-1-.3-1.8-1-2.5s-1.5-1-2.4-1h-3.3Zm3 10.5a7 7 0 0 0 6.5-9.7 6.9 6.9 0 0 0-6.5-4.3H9v14h6.7Z"/>
  <path fill="#fff" d="M14 19.6v-2.2l4.4-5.7h4.4l-5.3 6.9 5.3 6.8h-4.3L14 19.6Z"/>
  <path fill="#A1FFBB" d="M12.6 25.4V11.7H9v13.7h3.6ZM11 9.3A1.6 1.6 0 1 0 11 6h-.4a1.6 1.6 0 1 0 0 3.3h.3Z"/>
</svg>
