<svg width="40" height="40" viewBox="0 0 40 40" fill="none" xmlns="http://www.w3.org/2000/svg">
<path d="M32.6614 10.2172C33.4215 11.1999 34.0649 12.2675 34.5787 13.3985L20.0042 24.1427L13.9131 20.3243V15.7305L20.0042 19.5489L32.6614 10.2172Z" fill="#21A038"/>
<path d="M7.6964 20.0001C7.6964 19.7939 7.70142 19.5892 7.71148 19.3856L4.0201 19.2047C4.00754 19.4685 4 19.7349 4 20.0038C3.99843 22.1044 4.4116 24.1846 5.21583 26.1252C6.02004 28.0658 7.19947 29.8284 8.68646 31.312L11.3048 28.6948C10.1602 27.5548 9.25217 26.1997 8.63291 24.7076C8.01365 23.2154 7.69539 21.6156 7.6964 20.0001Z" fill="url(#paint0_linear_1108_38100)"/>
<path d="M20.0007 7.69562C20.2067 7.69562 20.4114 7.70317 20.615 7.71321L20.7997 4.02045C20.535 4.00788 20.2686 4.0016 20.0007 4.0016C17.8991 3.99904 15.8178 4.41163 13.8762 5.21568C11.9346 6.01974 10.171 7.19942 8.68652 8.68699L11.3049 11.3055C12.445 10.1604 13.8001 9.25202 15.2925 8.63252C16.7848 8.01301 18.3848 7.69461 20.0007 7.69562Z" fill="url(#paint1_linear_1108_38100)"/>
<path d="M20.0005 32.3046C19.7945 32.3046 19.5896 32.3046 19.3849 32.2883L19.2002 35.9798C19.4657 35.9932 19.7325 35.9999 20.0005 35.9999C22.1012 36.0021 24.1814 35.5892 26.122 34.7849C28.0626 33.9807 29.8251 32.8008 31.3084 31.3133L28.695 28.696C27.5548 29.8405 26.1997 30.7484 24.7077 31.3677C23.2157 31.9869 21.616 32.3054 20.0005 32.3046Z" fill="url(#paint2_linear_1108_38100)"/>
<path d="M26.9362 9.84262L30.047 7.54956C27.2037 5.24702 23.6544 3.99361 19.9956 4.00002V7.69531C22.4731 7.69223 24.8932 8.44099 26.9362 9.84262Z" fill="url(#paint3_linear_1108_38100)"/>
<path d="M35.9999 20.0001C36.0018 19.0388 35.9178 18.0791 35.7485 17.1328L32.3047 19.6709C32.3047 19.7803 32.3047 19.8895 32.3047 20.0001C32.3056 21.7193 31.9452 23.4195 31.247 24.9905C30.5488 26.5615 29.5282 27.9682 28.2515 29.1195L30.7354 31.865C32.3952 30.3665 33.7216 28.536 34.6285 26.492C35.5355 24.448 36.0026 22.2362 35.9999 20.0001Z" fill="#21A038"/>
<path d="M20.0006 32.3046C18.2814 32.3052 16.5811 31.9447 15.01 31.2465C13.4389 30.5482 12.0319 29.5277 10.8802 28.2512L8.13623 30.734C9.63446 32.3941 11.4649 33.7207 13.5088 34.6279C15.5527 35.535 17.7644 36.0025 20.0006 35.9998V32.3046Z" fill="url(#paint4_linear_1108_38100)"/>
<path d="M11.7496 10.8805L9.26693 8.13507C7.60666 9.63326 6.27982 11.4637 5.37247 13.5077C4.46512 15.5517 3.99753 17.7636 4.00001 19.9999H7.69641C7.69564 18.2808 8.05607 16.5806 8.75429 15.0096C9.45253 13.4386 10.473 12.0319 11.7496 10.8805Z" fill="url(#paint5_linear_1108_38100)"/>
<defs>
<linearGradient id="paint0_linear_1108_38100" x1="9.43403" y1="30.8509" x2="5.3956" y2="19.1771" gradientUnits="userSpaceOnUse">
<stop offset="0.14" stop-color="#F1E813"/>
<stop offset="0.3" stop-color="#E6E418"/>
<stop offset="0.58" stop-color="#C9DA26"/>
<stop offset="0.89" stop-color="#A2CC39"/>
</linearGradient>
<linearGradient id="paint1_linear_1108_38100" x1="9.74191" y1="9.34035" x2="20.1439" y2="5.37645" gradientUnits="userSpaceOnUse">
<stop offset="0.06" stop-color="#0FA7DF"/>
<stop offset="0.54" stop-color="#0098F8"/>
<stop offset="0.92" stop-color="#0290EA"/>
</linearGradient>
<linearGradient id="paint2_linear_1108_38100" x1="18.9565" y1="33.7696" x2="30.7191" y2="31.1124" gradientUnits="userSpaceOnUse">
<stop offset="0.12" stop-color="#A2CC39"/>
<stop offset="0.28" stop-color="#86C239"/>
<stop offset="0.87" stop-color="#219F38"/>
</linearGradient>
<linearGradient id="paint3_linear_1108_38100" x1="19.2267" y1="5.23765" x2="29.2832" y2="8.34091" gradientUnits="userSpaceOnUse">
<stop offset="0.06" stop-color="#0290EA"/>
<stop offset="0.79" stop-color="#0C89CA"/>
</linearGradient>
<linearGradient id="paint4_linear_1108_38100" x1="9.06347" y1="30.2842" x2="20.0096" y2="34.375" gradientUnits="userSpaceOnUse">
<stop offset="0.13" stop-color="#F1E813"/>
<stop offset="0.3" stop-color="#EAE616"/>
<stop offset="0.53" stop-color="#D8DF1F"/>
<stop offset="0.8" stop-color="#BAD52D"/>
<stop offset="0.98" stop-color="#A2CC39"/>
</linearGradient>
<linearGradient id="paint5_linear_1108_38100" x1="5.37705" y1="20.4472" x2="9.77107" y2="9.01724" gradientUnits="userSpaceOnUse">
<stop offset="0.07" stop-color="#A2CC39"/>
<stop offset="0.26" stop-color="#81C45E"/>
<stop offset="0.92" stop-color="#0FA7DF"/>
</linearGradient>
</defs>
</svg>
