<svg width="24" height="24" viewBox="0 0 24 24" fill="none" xmlns="http://www.w3.org/2000/svg">
<path fill-rule="evenodd" clip-rule="evenodd" d="M12.1139 21C12.3768 21.0001 12.6371 20.9488 12.88 20.8491C13.123 20.7494 13.3437 20.6034 13.5296 20.4191C13.7154 20.235 13.863 20.0162 13.9635 19.7755C14.0641 19.5349 14.1158 19.2769 14.1158 19.0164L10.1112 19.0157C10.1111 19.2763 10.1629 19.5344 10.2634 19.7753C10.364 20.016 10.5115 20.2349 10.6975 20.4191C10.8835 20.6035 11.1043 20.7496 11.3474 20.8493C11.5903 20.9489 11.8508 21.0002 12.1139 21ZM6.95238 9.01823V10.0349C6.95238 11.1316 6.67145 12.8558 6.31904 13.9034L5.25192 17.0769C5.07714 17.5979 5.38637 18.0291 5.94824 18.0291H18.0573C18.6192 18.0277 18.9313 17.6021 18.7529 17.0762L17.6872 13.9027C17.3377 12.8635 17.0547 11.1358 17.054 10.0342L17.0533 9.01683C17.0533 7.86241 16.6507 6.74345 15.9135 5.84948C15.1763 4.9555 14.1501 4.34146 13.0083 4.11137C13.0235 3.97555 13.0104 3.83809 12.9699 3.70747C12.9295 3.57684 12.8624 3.45581 12.7729 3.35182C12.6835 3.24783 12.5735 3.16308 12.4497 3.10278C12.3259 3.04248 12.1911 3.00791 12.0533 3.00121C11.9156 2.9945 11.7779 3.01579 11.6488 3.06377C11.5197 3.11174 11.4018 3.1854 11.3025 3.2802C11.2032 3.37499 11.1245 3.48893 11.0713 3.61498C11.018 3.74105 10.9914 3.87656 10.993 4.0132C10.9944 4.04685 10.9951 4.07981 10.9994 4.11206C10.0267 4.30733 9.13367 4.78245 8.43205 5.47797C7.96228 5.94233 7.58969 6.49406 7.33565 7.10147C7.0816 7.70888 6.95182 8.36073 6.95238 9.01823Z" fill="#1D3F66"/>
</svg>
