<svg width="12" height="12" viewBox="0 0 12 12" fill="none" xmlns="http://www.w3.org/2000/svg">
<path fill-rule="evenodd" clip-rule="evenodd" d="M6.00008 11.3327C4.58559 11.3327 3.22904 10.7708 2.22885 9.77059C1.22865 8.77039 0.666748 7.41384 0.666748 5.99935C0.666748 4.58486 1.22865 3.22831 2.22885 2.22811C3.22904 1.22792 4.58559 0.666016 6.00008 0.666016C7.41457 0.666016 8.77112 1.22792 9.77132 2.22811C10.7715 3.22831 11.3334 4.58486 11.3334 5.99935C11.3334 7.41384 10.7715 8.77039 9.77132 9.77059C8.77112 10.7708 7.41457 11.3327 6.00008 11.3327ZM6.90941 4.02335L5.47475 6.76335L4.44608 5.83668C4.38099 5.77811 4.305 5.73294 4.22245 5.70374C4.1399 5.67453 4.0524 5.66188 3.96496 5.66649C3.87752 5.6711 3.79184 5.69289 3.71282 5.73061C3.6338 5.76834 3.56298 5.82126 3.50441 5.88635C3.44585 5.95144 3.40067 6.02743 3.37147 6.10998C3.34227 6.19253 3.32961 6.28003 3.33422 6.36747C3.33883 6.45491 3.36062 6.54059 3.39835 6.61961C3.43607 6.69863 3.48899 6.76945 3.55408 6.82802L5.22075 8.32802C5.29626 8.39602 5.38633 8.44587 5.48406 8.47374C5.58178 8.50161 5.68459 8.50677 5.78462 8.48882C5.88465 8.47087 5.97925 8.43029 6.06119 8.37019C6.14314 8.31008 6.21025 8.23203 6.25741 8.14201L8.09075 4.64202C8.17279 4.48536 8.18924 4.30253 8.13648 4.13375C8.08372 3.96497 7.96607 3.82406 7.80941 3.74202C7.65276 3.65998 7.46993 3.64353 7.30115 3.69629C7.13237 3.74905 6.99146 3.86669 6.90941 4.02335Z" fill="#00875A"/>
</svg>
