<svg width="20" height="20" viewBox="0 0 20 20" fill="none" xmlns="http://www.w3.org/2000/svg">
<g clip-path="url(#clip0_2835_45682)">
<path d="M0 10.2163C0 10.0837 0.0749008 9.96255 0.193475 9.90326L3.49348 8.25326C3.72619 8.1369 4 8.30613 4 8.56631V17.4337C4 17.6939 3.72619 17.8631 3.49348 17.7467L0.193475 16.0967C0.0749008 16.0375 0 15.9163 0 15.7837V10.2163Z" fill="#55B8F0"/>
<path d="M20 10.2163C20 10.0837 19.9251 9.96255 19.8065 9.90326L16.5065 8.25326C16.2738 8.1369 16 8.30613 16 8.56631V17.4337C16 17.6939 16.2738 17.8631 16.5065 17.7467L19.8065 16.0967C19.9251 16.0375 20 15.9163 20 15.7837V10.2163Z" fill="#55B8F0"/>
<path d="M0 4.22746C0 4.08914 0.0814567 3.9638 0.207852 3.90762L8.50785 0.218733C8.7393 0.115866 9 0.285286 9 0.538567V19.4692C9 19.7205 8.74308 19.8899 8.51213 19.7909L5.71213 18.5909C5.58344 18.5358 5.5 18.4092 5.5 18.2692V6.58959C5.5 6.32392 5.21563 6.15511 4.9824 6.28233L0.517599 8.71767C0.284367 8.84489 0 8.67608 0 8.41041V4.22746Z" fill="#2165CC"/>
<path d="M20 4.22746C20 4.08914 19.9185 3.9638 19.7921 3.90762L11.4921 0.218733C11.2607 0.115866 11 0.285286 11 0.538567V19.4692C11 19.7205 11.2569 19.8899 11.4879 19.7909L14.2879 18.5909C14.4166 18.5358 14.5 18.4092 14.5 18.2692V6.58959C14.5 6.32392 14.7844 6.15511 15.0176 6.28233L19.4824 8.71768C19.7156 8.84489 20 8.67608 20 8.41041V4.22746Z" fill="#2165CC"/>
</g>
<defs>
<clipPath id="clip0_2835_45682">
<rect width="20" height="20" fill="white"/>
</clipPath>
</defs>
</svg>
