<svg width="98" height="33" viewBox="0 0 98 33" fill="none" xmlns="http://www.w3.org/2000/svg">
<path d="M38.7542 18.5442H27.1908V24.1033H38.7542V18.5442Z" fill="#557192"/>
<path d="M26.9786 32.1536V26.6294H32.4262C33.9347 26.6294 35.1918 26.0914 36.2535 25.0146C37.3149 23.9382 37.8458 22.6351 37.8458 21.1337C37.8458 19.604 37.3149 18.3293 36.2535 17.2244C35.1918 16.1479 33.9067 15.6097 32.4262 15.6097H26.9786V10.114H32.4262C33.9067 10.114 35.3035 10.3973 36.6445 10.9922C37.9854 11.5871 39.1309 12.352 40.1088 13.3435C41.0864 14.3349 41.8407 15.4964 42.4274 16.8562C43.0141 18.2159 43.2933 19.6324 43.2933 21.1337C43.2933 22.6351 43.0141 24.0516 42.4274 25.4113C41.8407 26.7711 41.0864 27.9324 40.1088 28.9239C39.1309 29.9155 37.9854 30.6804 36.6445 31.2752C35.3035 31.8703 33.9067 32.1536 32.4262 32.1536H26.9786Z" fill="#557192"/>
<path d="M80.7594 11.6362C82.4852 10.6309 84.3262 10.114 86.311 10.114C88.2957 10.114 90.1364 10.6309 91.8625 11.6362C93.5883 12.6412 94.9401 14.0198 95.9755 15.743C96.9823 17.4664 97.5 19.3043 97.5 21.2861C97.5 23.2678 96.9823 25.106 95.9755 26.8291C94.969 28.5523 93.5883 29.9021 91.8625 30.9362C90.1364 31.97 88.2957 32.4584 86.311 32.4584C84.3262 32.4584 82.4852 31.9412 80.7594 30.9362C79.0337 29.9309 77.6818 28.5523 76.6461 26.8291C75.6396 25.106 75.1216 23.2678 75.1216 21.2861C75.1216 19.3043 75.6396 17.4664 76.6461 15.743C77.6818 14.0198 79.0337 12.6412 80.7594 11.6362ZM90.2516 17.3514C89.1585 16.2602 87.8355 15.6856 86.311 15.6856C84.7864 15.6856 83.4631 16.2314 82.3703 17.3514C81.2771 18.4429 80.702 19.7638 80.702 21.2861C80.702 22.8083 81.2486 24.1007 82.3703 25.2207C83.4631 26.3122 84.7864 26.858 86.311 26.858C87.8355 26.858 89.1299 26.3122 90.2516 25.2207C91.3445 24.1295 91.8911 22.8083 91.8911 21.2861C91.9199 19.7638 91.3445 18.4429 90.2516 17.3514Z" fill="#557192"/>
<path fill-rule="evenodd" clip-rule="evenodd" d="M54.4724 15.6814V26.7013H59.7313C61.2399 26.7013 62.497 26.1632 63.5586 25.0864C64.6202 24.01 65.151 22.707 65.151 21.2056C65.151 19.676 64.6202 18.4012 63.5586 17.2963C62.497 16.2198 61.2119 15.6814 59.7313 15.6814H54.4724ZM59.3681 32.5001C64.8476 32.5001 69.4089 28.5766 70.3869 23.3902C70.529 22.6807 70.5987 21.9539 70.5987 21.2056C70.5987 19.7042 70.3191 18.2878 69.7324 16.9281C69.1457 15.5683 68.3915 14.407 67.4139 13.4154C66.4359 12.4239 65.2906 11.659 63.9497 11.0642C63.3204 10.7847 62.6788 10.5742 62.0219 10.4294C61.1711 10.2233 60.2824 10.114 59.3681 10.114H48.6429V32.5001H59.3681Z" fill="#557192"/>
<path d="M8.65704 22.3523V18.8112L15.6149 9.60449H22.5727L14.2118 20.6242L22.5727 31.6439H15.6721L8.65704 22.3523Z" fill="#557192"/>
<path d="M6.25818 31.6439L6.25818 9.60449H0.499995L0.499995 31.6439H6.25818Z" fill="#7856FF"/>
<path d="M3.61901 5.7703C5.07658 5.7703 6.25818 4.5905 6.25818 3.13515C6.25818 1.6798 5.07658 0.5 3.61901 0.5L3.13916 0.5C1.68159 0.5 0.499995 1.6798 0.499995 3.13515C0.499995 4.5905 1.68159 5.7703 3.13916 5.7703H3.61901Z" fill="#7856FF"/>
</svg>
