<svg width="24" height="24" viewBox="0 0 24 24" fill="none" xmlns="http://www.w3.org/2000/svg">
<path d="M19.7479 11.8769L16.8282 10.7182L19.1802 4.79317C19.2301 4.6673 19.2547 4.53282 19.2527 4.39742C19.2507 4.26202 19.222 4.12835 19.1683 4.00403C19.1146 3.87972 19.0369 3.7672 18.9398 3.67289C18.8426 3.57859 18.7278 3.50435 18.6019 3.45442C18.476 3.40448 18.3416 3.37983 18.2062 3.38186C18.0708 3.3839 17.9371 3.41258 17.8128 3.46628C17.6885 3.51997 17.5759 3.59763 17.4816 3.69481C17.3873 3.79199 17.3131 3.9068 17.2632 4.03267L14.9112 9.95767L11.2504 8.50492L13.6024 2.57992C13.698 2.32694 13.6904 2.04652 13.5813 1.79909C13.4721 1.55165 13.2701 1.357 13.0188 1.25707C12.7675 1.15713 12.487 1.15992 12.2377 1.26483C11.9885 1.36973 11.7904 1.56836 11.6862 1.81792L9.3349 7.74292L6.4174 6.58567L5.20615 9.63592L6.81865 10.2764L4.9159 15.0704C4.69626 15.6252 4.70583 16.2445 4.9425 16.7923C5.17918 17.34 5.62361 17.7714 6.17815 17.9917L7.39765 18.4762L6.7399 20.1314C6.59335 20.5012 6.59968 20.914 6.75748 21.2792C6.91529 21.6443 7.21165 21.9318 7.5814 22.0784L8.2789 22.3559C8.6487 22.5023 9.06146 22.4958 9.42653 22.3381C9.79159 22.1803 10.0791 21.884 10.2259 21.5144L10.8837 19.8592L12.2772 20.4119C12.8319 20.6318 13.4513 20.6225 13.9993 20.386C14.5472 20.1494 14.9787 19.705 15.1992 19.1504L17.1004 14.3579L18.5381 14.9279L19.7479 11.8784V11.8769Z" fill="#1D3F66"/>
</svg>
