<svg width="24" height="24" viewBox="0 0 24 24" fill="none" xmlns="http://www.w3.org/2000/svg">
<path fill-rule="evenodd" clip-rule="evenodd" d="M7.50024 3C7.2241 3 7.00024 3.22386 7.00024 3.5V5H6.00024H3.50024C3.2241 5 3.00024 5.22386 3.00024 5.5V6.5C3.00024 6.77614 3.2241 7 3.50024 7H5.00024V20C5.00024 20.5523 5.44796 21 6.00024 21H18.0002C18.5525 21 19.0002 20.5523 19.0002 20V7H20.5002C20.7764 7 21.0002 6.77614 21.0002 6.5V5.5C21.0002 5.22386 20.7764 5 20.5002 5H18.0002H17.0002V3.5C17.0002 3.22386 16.7764 3 16.5002 3H7.50024ZM7.00024 7H17.0002V19H7.00024V7ZM9.00024 9.5C9.00024 9.22386 9.2241 9 9.50024 9H10.5002C10.7764 9 11.0002 9.22386 11.0002 9.5V16.5C11.0002 16.7761 10.7764 17 10.5002 17H9.50024C9.2241 17 9.00024 16.7761 9.00024 16.5V9.5ZM13.5002 9C13.2241 9 13.0002 9.22386 13.0002 9.5V16.5C13.0002 16.7761 13.2241 17 13.5002 17H14.5002C14.7764 17 15.0002 16.7761 15.0002 16.5V9.5C15.0002 9.22386 14.7764 9 14.5002 9H13.5002Z" fill="#072D57"/>
</svg>
